<?xml version="1.0" encoding="UTF-8"?>
<svg id="Layer_1" data-name="Layer 1" xmlns="http://www.w3.org/2000/svg" viewBox="0 0 448 511.63">
  <defs>
    <style>
      .cls-1 {
        fill: #fff;
      }
    </style>
  </defs>
  <path class="cls-1" d="M201.5,.73c-49.6,5.4-96.1,27.3-132.1,62.2-14.1,13.6-22.1,23.1-31.8,37.6C-1.7,159.33-10.7,232.83,13.2,300.03c7.3,20.5,22.2,46.8,36.5,64.6,8.6,10.6,23.2,25.1,34.3,33.9,9.9,7.9,25.9,18.7,32.3,21.7l3.7,1.8v24.7l-33.7-.3-33.8-.3-5-2.7c-9.3-4.9-15.6-13.7-17.3-24.1l-.8-4.2-14.7-.3-14.7-.3v97.1H184v-135.5l-6.9-3.2c-24.7-11.6-47.6-35.5-62.1-64.8-9.6-19.5-14.9-36.8-18-59.5-1.6-11.2-1.3-39.8,.4-52.4,9.7-68.1,52.9-120.7,107.6-131,38.3-7.3,79.2,8.7,106.8,41.7,26.8,32,40.3,71.2,40.3,116.7s-12.2,81.2-36.6,112.6c-12,15.3-31.5,31.2-45.9,37.5l-5.6,2.4v135.5h184v-97.1l-14.7,.3-14.7,.3-.8,4.2c-1.7,10.4-8,19.2-17.3,24.1l-5,2.7-33.7,.3-33.8,.3v-12.3l.1-12.3,8.1-4.5c4.5-2.5,13-7.9,18.8-12.2,71.8-52.2,105.8-139.3,88.4-226.6-8.2-41.1-28.5-79.6-58.4-110.6C350.8,32.83,308.8,10.83,259.5,2.53c-14.1-2.4-44.1-3.3-58-1.8Z"/>
</svg>